<svg width="18" height="18" viewBox="0 0 18 18" fill="none" xmlns="http://www.w3.org/2000/svg">
<path d="M9 1.5C5.48597 1.5 2.625 4.36097 2.625 7.875C2.625 9.45255 3.20374 10.8993 4.1543 12.0117L4.15723 12.0146L4.15942 12.0176C4.15942 12.0176 6.8714 15.1121 7.83691 16.0334C8.48346 16.6499 9.5158 16.6499 10.1624 16.0334C11.2629 14.9837 13.8413 12.0161 13.8413 12.0161L13.8428 12.0139L13.845 12.0117C14.7964 10.8993 15.375 9.45255 15.375 7.875C15.375 4.36097 12.514 1.5 9 1.5ZM9 2.625C11.906 2.625 14.25 4.96903 14.25 7.875C14.25 9.1782 13.7751 10.3622 12.9895 11.2808C12.9844 11.2866 10.3463 14.3038 9.38599 15.2197C9.16329 15.4321 8.83598 15.4321 8.61328 15.2197C7.81072 14.4539 5.01791 11.29 5.00977 11.2808L5.00903 11.28C4.2245 10.3616 3.75 9.17784 3.75 7.875C3.75 4.96903 6.09403 2.625 9 2.625ZM9 5.625C8.29688 5.625 7.69831 5.90893 7.31396 6.34131C6.92962 6.77369 6.75 7.32812 6.75 7.875C6.75 8.42188 6.92962 8.97631 7.31396 9.40869C7.69831 9.84107 8.29688 10.125 9 10.125C9.70312 10.125 10.3017 9.84107 10.686 9.40869C11.0704 8.97631 11.25 8.42188 11.25 7.875C11.25 7.32812 11.0704 6.77369 10.686 6.34131C10.3017 5.90893 9.70312 5.625 9 5.625ZM9 6.75C9.42187 6.75 9.66706 6.88795 9.84521 7.08838C10.0234 7.28881 10.125 7.57812 10.125 7.875C10.125 8.17188 10.0234 8.46119 9.84521 8.66162C9.66706 8.86205 9.42187 9 9 9C8.57813 9 8.33294 8.86205 8.15479 8.66162C7.97663 8.46119 7.875 8.17188 7.875 7.875C7.875 7.57812 7.97663 7.28881 8.15479 7.08838C8.33294 6.88795 8.57813 6.75 9 6.75Z" fill="#7E7E7E"/>
</svg>
