<svg width="20" height="20" viewBox="0 0 20 20" fill="none" xmlns="http://www.w3.org/2000/svg">
<path fill-rule="evenodd" clip-rule="evenodd" d="M12.594 15.0082C11.5434 15.638 10.314 16 9 16C5.13401 16 2 12.866 2 9C2 5.13401 5.13401 2 9 2C12.866 2 16 5.13401 16 9C16 10.8276 15.2996 12.4917 14.1525 13.7383L17.2071 16.7929C17.5976 17.1834 17.5976 17.8166 17.2071 18.2071C16.8166 18.5976 16.1834 18.5976 15.7929 18.2071L12.594 15.0082ZM14 9C14 11.7614 11.7614 14 9 14C6.23858 14 4 11.7614 4 9C4 6.23858 6.23858 4 9 4C11.7614 4 14 6.23858 14 9Z" fill="white"/>
</svg>
