<svg width="48" height="48" viewBox="0 0 48 48" fill="none" xmlns="http://www.w3.org/2000/svg">
<path d="M11.5 4C9.019 4 7 6.019 7 8.5V39.5C7 41.981 9.019 44 11.5 44H34C31.204 44 28.6783 42.85 26.8633 41H11.5C10.673 41 10 40.327 10 39.5V39H25.3496C24.8176 38.081 24.4192 37.074 24.2012 36H10V8.5C10 7.673 10.673 7 11.5 7H35.5C36.327 7 37 7.673 37 8.5V24.459C38.095 24.803 39.103 25.3387 40 26.0137V8.5C40 6.019 37.981 4 35.5 4H11.5ZM23.5 11C21.0325 11 19 13.0325 19 15.5C19 17.9675 21.0325 20 23.5 20C25.9675 20 28 17.9675 28 15.5C28 13.0325 25.9675 11 23.5 11ZM23.5 14C24.3465 14 25 14.6535 25 15.5C25 16.3465 24.3465 17 23.5 17C22.6535 17 22 16.3465 22 15.5C22 14.6535 22.6535 14 23.5 14ZM18.5 22C17.122 22 16 23.121 16 24.5V27C16 29.804 19.294 32 23.5 32C23.738 32 23.9731 31.9906 24.2051 31.9766C24.4441 30.8146 24.8921 29.7329 25.4961 28.7559C24.9091 28.9049 24.244 29 23.5 29C20.795 29 19 27.796 19 27V25H28V26.0137C28.896 25.3397 29.9021 24.8049 30.9961 24.4609C30.9741 23.0999 29.865 22 28.5 22H18.5ZM34 26C29.589 26 26 29.589 26 34C26 38.411 29.589 42 34 42C35.665 42 37.2102 41.4873 38.4922 40.6133L43.4395 45.5605C43.7325 45.8545 44.116 46 44.5 46C44.884 46 45.2675 45.8535 45.5605 45.5605C46.1455 44.9745 46.1455 44.0255 45.5605 43.4395L40.6152 38.4922C41.4882 37.2102 42 35.665 42 34C42 29.589 38.411 26 34 26ZM34 29C36.757 29 39 31.243 39 34C39 36.757 36.757 39 34 39C31.243 39 29 36.757 29 34C29 31.243 31.243 29 34 29Z" fill="white"/>
</svg>
