<svg width="48" height="48" viewBox="0 0 48 48" fill="none" xmlns="http://www.w3.org/2000/svg">
  <path d="M10.5 7C6.92806 7 4 9.92806 4 13.5V30.5C4 34.0719 6.92806 37 10.5 37H12V42.5C12 44.466 14.4273 45.6789 16 44.5L26 37H37.5C41.0719 37 44 34.0719 44 30.5V13.5C44 9.92806 41.0719 7 37.5 7H10.5ZM10.5 10H37.5C39.4501 10 41 11.5499 41 13.5V30.5C41 32.4501 39.4501 34 37.5 34H25.5C25.1752 34.0002 24.8593 34.1057 24.5996 34.3008L15 41.5V35.5C15 35.1022 14.8419 34.7207 14.5606 34.4394C14.2793 34.1581 13.8978 34 13.5 34H10.5C8.54994 34 7 32.4501 7 30.5V13.5C7 11.5499 8.54994 10 10.5 10ZM15.5 16.998C15.3012 16.9952 15.1039 17.032 14.9194 17.1061C14.735 17.1802 14.5671 17.2902 14.4255 17.4298C14.284 17.5694 14.1716 17.7357 14.0949 17.9191C14.0181 18.1025 13.9786 18.2993 13.9786 18.498C13.9786 18.6968 14.0181 18.8936 14.0949 19.077C14.1716 19.2604 14.284 19.4267 14.4255 19.5663C14.5671 19.7059 14.735 19.8159 14.9194 19.89C15.1039 19.9641 15.3012 20.0009 15.5 19.998H32.5C32.6988 20.0009 32.8961 19.9641 33.0806 19.89C33.265 19.8159 33.4329 19.7059 33.5745 19.5663C33.716 19.4267 33.8284 19.2604 33.9051 19.077C33.9819 18.8936 34.0214 18.6968 34.0214 18.498C34.0214 18.2993 33.9819 18.1025 33.9051 17.9191C33.8284 17.7357 33.716 17.5694 33.5745 17.4298C33.4329 17.2902 33.265 17.1802 33.0806 17.1061C32.8961 17.032 32.6988 16.9952 32.5 16.998H15.5ZM15.5 23.998C15.3012 23.9952 15.1039 24.032 14.9194 24.1061C14.735 24.1802 14.5671 24.2902 14.4255 24.4298C14.284 24.5694 14.1716 24.7357 14.0949 24.9191C14.0181 25.1025 13.9786 25.2993 13.9786 25.498C13.9786 25.6968 14.0181 25.8936 14.0949 26.077C14.1716 26.2604 14.284 26.4267 14.4255 26.5663C14.5671 26.7059 14.735 26.8159 14.9194 26.89C15.1039 26.9641 15.3012 27.0009 15.5 26.998H28.5C28.6988 27.0009 28.8961 26.9641 29.0806 26.89C29.265 26.8159 29.4329 26.7059 29.5745 26.5663C29.716 26.4267 29.8284 26.2604 29.9051 26.077C29.9819 25.8936 30.0214 25.6968 30.0214 25.498C30.0214 25.2993 29.9819 25.1025 29.9051 24.9191C29.8284 24.7357 29.716 24.5694 29.5745 24.4298C29.4329 24.2902 29.265 24.1802 29.0806 24.1061C28.8961 24.032 28.6988 23.9952 28.5 23.998H15.5Z" fill="white"/>
</svg>
