<svg width="48" height="48" viewBox="0 0 48 48" fill="none" xmlns="http://www.w3.org/2000/svg">
<path d="M24 6C22.125 6 20.5288 6.75713 19.5039 7.91016C18.479 9.06318 18 10.5417 18 12C18 13.4583 18.479 14.9368 19.5039 16.0898C20.5288 17.2429 22.125 18 24 18C25.875 18 27.4712 17.2429 28.4961 16.0898C29.521 14.9368 30 13.4583 30 12C30 10.5417 29.521 9.06318 28.4961 7.91016C27.4712 6.75713 25.875 6 24 6ZM11 8C9.45833 8 8.11215 8.63213 7.25391 9.59766C6.39566 10.5632 6 11.7917 6 13C6 14.2083 6.39566 15.4368 7.25391 16.4023C8.11215 17.3679 9.45833 18 11 18C12.5417 18 13.8879 17.3679 14.7461 16.4023C15.6043 15.4368 16 14.2083 16 13C16 11.7917 15.6043 10.5632 14.7461 9.59766C13.8879 8.63213 12.5417 8 11 8ZM37 8C35.4583 8 34.1121 8.63213 33.2539 9.59766C32.3957 10.5632 32 11.7917 32 13C32 14.2083 32.3957 15.4368 33.2539 16.4023C34.1121 17.3679 35.4583 18 37 18C38.5417 18 39.8879 17.3679 40.7461 16.4023C41.6043 15.4368 42 14.2083 42 13C42 11.7917 41.6043 10.5632 40.7461 9.59766C39.8879 8.63213 38.5417 8 37 8ZM24 9C25.125 9 25.7788 9.36787 26.2539 9.90234C26.729 10.4368 27 11.2083 27 12C27 12.7917 26.729 13.5632 26.2539 14.0977C25.7788 14.6321 25.125 15 24 15C22.875 15 22.2212 14.6321 21.7461 14.0977C21.271 13.5632 21 12.7917 21 12C21 11.2083 21.271 10.4368 21.7461 9.90234C22.2212 9.36787 22.875 9 24 9ZM11 11C11.7917 11 12.1955 11.2429 12.5039 11.5898C12.8123 11.9368 13 12.4583 13 13C13 13.5417 12.8123 14.0632 12.5039 14.4102C12.1955 14.7571 11.7917 15 11 15C10.2083 15 9.80452 14.7571 9.49609 14.4102C9.18767 14.0632 9 13.5417 9 13C9 12.4583 9.18767 11.9368 9.49609 11.5898C9.80452 11.2429 10.2083 11 11 11ZM37 11C37.7917 11 38.1955 11.2429 38.5039 11.5898C38.8123 11.9368 39 12.4583 39 13C39 13.5417 38.8123 14.0632 38.5039 14.4102C38.1955 14.7571 37.7917 15 37 15C36.2083 15 35.8045 14.7571 35.4961 14.4102C35.1877 14.0632 35 13.5417 35 13C35 12.4583 35.1877 11.9368 35.4961 11.5898C35.8045 11.2429 36.2083 11 37 11ZM7.5 20C5.57 20 4 21.57 4 23.5V30C4 34.41 7.59 38 12 38C12.71 38 13.4005 37.9105 14.0605 37.7305C13.6405 36.8305 13.3302 35.8694 13.1602 34.8594C12.7902 34.9494 12.4 35 12 35C9.24 35 7 32.76 7 30V23.5C7 23.22 7.22 23 7.5 23H13.0293C13.1293 21.86 13.5698 20.83 14.2598 20H7.5ZM18.5 20C16.585 20 15 21.585 15 23.5V33C15 37.9527 19.0473 42 24 42C28.9527 42 33 37.9527 33 33V23.5C33 21.585 31.415 20 29.5 20H18.5ZM33.7402 20C34.4302 20.83 34.8707 21.86 34.9707 23H40.5C40.78 23 41 23.22 41 23.5V30C41 32.76 38.76 35 36 35C35.6 35 35.2098 34.9494 34.8398 34.8594C34.6698 35.8694 34.3595 36.8305 33.9395 37.7305C34.5995 37.9105 35.29 38 36 38C40.41 38 44 34.41 44 30V23.5C44 21.57 42.43 20 40.5 20H33.7402ZM18.5 23H22.0605L22.9785 24.8359C22.9825 24.8429 22.9882 24.8485 22.9922 24.8555C22.9912 24.8615 22.9873 24.8651 22.9863 24.8711L22.0117 30.4961C21.9757 30.7031 22.0282 30.916 22.1562 31.082L23.4062 32.707C23.5473 32.892 23.767 33 24 33C24.233 33 24.4527 32.892 24.5938 32.707L25.8438 31.082C25.9718 30.916 26.0243 30.7031 25.9883 30.4961L25.0137 24.8711C25.0127 24.8651 25.0098 24.8615 25.0078 24.8555C25.0118 24.8485 25.0175 24.8439 25.0215 24.8359L25.9375 23H29.5C29.795 23 30 23.205 30 23.5V33C30 36.3313 27.3313 39 24 39C20.6687 39 18 36.3313 18 33V23.5C18 23.205 18.205 23 18.5 23Z" fill="white"/>
</svg>
