<svg width="100" height="100" viewBox="0 0 100 100" fill="none" xmlns="http://www.w3.org/2000/svg">
<g clip-path="url(#clip0_2501_166)">
<g clip-path="url(#clip1_2501_166)">
<path d="M119.877 48.3486H122.066C122.249 48.3486 122.338 48.1351 122.338 47.8985C122.338 47.6656 122.249 47.4533 122.066 47.4533H111.814C111.636 47.4533 111.555 47.6656 111.555 47.8985C111.555 48.1351 111.636 48.3486 111.814 48.3486H114.016V53.5521C114.016 54.7884 112.607 56.1253 111.02 56.1253C109.029 56.1253 106.803 54.0253 106.803 47.0165V43.8222C106.803 37.6093 107.738 35.2726 111.461 35.2726C111.87 35.2726 112.284 35.3345 112.688 35.4813C114.833 36.2165 117.088 38.7946 117.088 41.221C117.088 41.3011 117.467 41.3678 117.585 41.3678C117.674 41.3678 117.965 41.3011 117.965 41.221C117.849 39.3296 117.703 35.3636 117.703 34.7995C117.647 34.5617 117.614 34.444 117.181 34.444C116.506 34.444 116.881 35.5056 116.125 35.5056C115.477 35.5056 114.51 34.8614 112.688 34.5617C112.195 34.4768 111.607 34.444 110.904 34.444C104.08 34.444 100.651 40.003 100.651 45.5619C100.651 51.2106 104.197 56.9164 111.02 56.9164C114.274 56.9164 114.861 55.2955 116.999 55.2955C119.112 55.2955 118.524 56.6555 119.369 56.6555C119.812 56.6555 119.877 56.5378 119.877 56.3V48.3486Z" fill="#4348BD"/>
<path d="M136.402 35.6245H138.596C138.774 35.6245 138.863 35.4243 138.863 35.1877C138.863 34.9511 138.774 34.7425 138.596 34.7425H128.344C128.161 34.7425 128.082 34.9511 128.082 35.1877C128.082 35.4243 128.161 35.6245 128.344 35.6245H130.541V55.7371H128.344C128.161 55.7371 128.082 55.9458 128.082 56.1824C128.082 56.4189 128.161 56.6276 128.344 56.6276H138.596C138.774 56.6276 138.863 56.4189 138.863 56.1824C138.863 55.9458 138.774 55.7371 138.596 55.7371H136.402V35.6245Z" fill="#4348BD"/>
<path d="M157.23 56.6276C162.598 56.6276 167.988 52.8982 167.988 45.7415C167.988 38.5289 162.598 34.7425 157.206 34.7425H145.743C145.573 34.7425 145.484 34.9511 145.484 35.1877C145.484 35.4243 145.573 35.6245 145.743 35.6245H147.945V55.7371H145.743C145.573 55.7371 145.484 55.9458 145.484 56.1824C145.484 56.4189 145.573 56.6276 145.743 56.6276H157.23ZM161.837 44.709V46.7181C161.837 52.7223 161.071 55.7371 157.295 55.7371C156.178 55.7371 154.454 55.7371 153.806 55.708V35.6245H157.295C161.043 35.6245 161.837 38.7 161.837 44.709Z" fill="#4348BD"/>
<path d="M207.867 42.3153C207.867 42.4051 208.219 42.4573 208.336 42.4573C208.426 42.4573 208.749 42.4051 208.749 42.3153L208.722 41.6566C208.632 40.4203 208.454 35.3345 208.454 35.0688V34.9791C208.454 34.9172 208.426 34.7425 208.336 34.7425H189.088C188.994 34.7425 188.97 34.9172 188.97 34.9791C188.97 34.9791 188.796 40.3912 188.707 41.6566L188.679 42.3153C188.679 42.4051 189.059 42.4573 189.148 42.4573C189.266 42.4573 189.552 42.4051 189.552 42.3153C189.763 40.2772 191.106 35.6245 194.422 35.6245H195.765V55.7371H193.567C193.394 55.7371 193.304 55.9458 193.304 56.1824C193.304 56.4189 193.394 56.6276 193.567 56.6276H203.828C203.997 56.6276 204.091 56.4189 204.091 56.1824C204.091 55.9458 203.997 55.7371 203.828 55.7371H201.625V35.6245H203.007C206.317 35.6245 207.698 40.2772 207.867 42.3153Z" fill="#4348BD"/>
<path d="M222.932 45.7706H226.477C228.379 45.7706 229.083 48.5185 229.083 51.0929C229.083 55.2349 231.516 56.9164 234.094 56.9164C236.7 56.9164 239.161 55.2057 239.161 52.5755C239.161 52.3389 238.964 52.22 238.73 52.22C238.523 52.22 238.287 52.3389 238.287 52.5755C238.287 53.9598 237.466 54.7083 236.649 54.7083C235.827 54.7083 235.005 53.9598 235.005 52.3959C235.005 47.4533 233.131 45.4151 229.788 45.244V45.1264C233.926 44.6144 235.944 42.2486 235.944 39.9217C235.944 37.3205 233.456 34.7425 228.652 34.7425H214.873C214.699 34.7425 214.61 34.9511 214.61 35.1877C214.61 35.4243 214.699 35.6245 214.873 35.6245H217.071V55.7371H214.873C214.699 55.7371 214.61 55.9458 214.61 56.1824C214.61 56.4189 214.699 56.6276 214.873 56.6276H225.134C225.304 56.6276 225.392 56.4189 225.392 56.1824C225.392 55.9458 225.304 55.7371 225.134 55.7371H222.932V45.7706ZM226.27 35.6245C228.614 35.6245 229.82 37.9369 229.82 40.2395C229.82 42.4864 228.674 44.8886 226.331 44.8886H222.932V35.6245H226.27Z" fill="#4348BD"/>
<path d="M255.048 34.5617C254.987 34.444 254.607 34.4149 254.489 34.4149C254.437 34.4149 253.996 34.4768 253.967 34.5617L245.581 55.8888H243.824C243.65 55.8888 243.561 56.0877 243.561 56.3243C243.561 56.5609 243.65 56.7696 243.824 56.7696H248.746C248.929 56.7696 249.008 56.5609 249.008 56.3243C249.008 56.0877 248.929 55.8888 248.746 55.8888H246.549L248.37 51.3053H255.457L257.302 55.8888H254.959C254.79 55.8888 254.696 56.0877 254.696 56.3243C254.696 56.5609 254.79 56.7696 254.959 56.7696H265.417C265.6 56.7696 265.689 56.5609 265.689 56.3243C265.689 56.0877 265.6 55.8888 265.417 55.8888H263.698L255.048 34.5617ZM251.883 42.524L255.076 50.4099H248.722L251.883 42.524Z" fill="#4348BD"/>
<path d="M280.772 56.6276C280.839 56.7465 281.214 56.7696 281.331 56.7696C281.398 56.7696 281.829 56.7174 281.863 56.6276L289.953 35.6245H292.297C292.466 35.6245 292.56 35.4243 292.56 35.1877C292.56 34.9511 292.466 34.7425 292.297 34.7425H286.788C286.605 34.7425 286.516 34.9511 286.516 35.1877C286.516 35.4243 286.605 35.6245 286.788 35.6245H288.976L283.91 48.6993L278.373 35.6245H280.721C280.89 35.6245 280.979 35.4243 280.979 35.1877C280.979 34.9511 280.89 34.7425 280.721 34.7425H269.61C269.441 34.7425 269.347 34.9511 269.347 35.1877C269.347 35.4243 269.441 35.6245 269.61 35.6245H271.93L280.772 56.6276Z" fill="#4348BD"/>
<path d="M316.702 56.6276C316.796 56.6276 316.937 56.4808 316.965 56.0065C316.993 55.7371 317.082 52.0405 317.172 50.803L317.2 50.1491C317.2 50.0593 316.796 50.0023 316.702 50.0023C316.584 50.0023 316.326 50.0593 316.326 50.1491L316.232 50.9498C316.054 52.5755 313.189 55.7371 309.879 55.7371H305.713V45.244H308.822C309.696 45.244 310.517 47.5188 310.517 48.4663V49.3483C310.517 49.4381 310.935 49.4672 311.016 49.4672C311.132 49.4672 311.4 49.4381 311.4 49.3483V40.2116C311.4 40.1595 311.132 40.0927 311.016 40.0927C310.935 40.0927 310.517 40.1595 310.517 40.2116V41.1313C310.517 42.0788 309.696 44.3535 308.822 44.3535H305.713V35.6245H309.292C312.625 35.6245 314.918 37.7901 315.115 40.8037L315.152 41.221C315.152 41.3011 315.532 41.3678 315.65 41.3678C315.739 41.3678 316.025 41.3011 316.025 41.221L316.002 40.5671C315.909 39.3296 315.768 35.7798 315.768 35.2168C315.768 35.0979 315.532 34.7425 315.443 34.7425H297.65C297.482 34.7425 297.391 34.9511 297.391 35.1877C297.391 35.4243 297.482 35.6245 297.65 35.6245H299.852V55.7371H297.65C297.482 55.7371 297.391 55.9458 297.391 56.1824C297.391 56.4189 297.482 56.6276 297.65 56.6276H316.702Z" fill="#4348BD"/>
<path d="M342.375 56.6276C342.465 56.6276 342.606 56.4808 342.633 56.0065C342.662 55.7371 342.751 52.0405 342.84 50.803L342.869 50.1491C342.869 50.0593 342.465 50.0023 342.375 50.0023C342.258 50.0023 341.995 50.0593 341.995 50.1491C341.723 52.5755 338.858 55.7371 335.548 55.7371H331.382V35.6245H333.584C333.754 35.6245 333.843 35.4243 333.843 35.1877C333.843 34.9511 333.754 34.7425 333.584 34.7425H323.324C323.149 34.7425 323.06 34.9511 323.06 35.1877C323.06 35.4243 323.149 35.6245 323.324 35.6245H325.521V55.7371H323.324C323.149 55.7371 323.06 55.9737 323.06 56.1824C323.06 56.4189 323.149 56.6276 323.324 56.6276H342.375Z" fill="#4348BD"/>
<path d="M118.632 73.3615C118.632 71.7685 117.713 70.5796 114.937 70.5796H111.678V81.854H115.284C118.154 81.854 119.145 80.6407 119.145 78.5928C119.145 76.0584 116.782 75.8109 116.782 75.8109V75.7636C116.782 75.7636 118.632 75.6362 118.632 73.3615ZM112.683 71.5416H114.937C116.721 71.5416 117.595 72.0245 117.595 73.3615C117.595 74.7166 116.496 75.4276 115.153 75.4276H112.683V71.5416ZM115.284 80.8676H112.683V76.4139H115.496C116.928 76.4139 118.046 76.9865 118.046 78.5928C118.046 80.6978 116.848 80.8676 115.284 80.8676Z" fill="#4348BD"/>
<path d="M127.893 74.2568C126.503 74.2568 125.278 74.9107 125.278 74.9107L125.484 75.5125C125.484 75.5125 126.649 75.0721 127.649 75.0721C129.035 75.0721 129.551 75.5744 129.551 77.4233V77.5228C125.818 77.5653 124.808 78.6317 124.808 80.0147C124.808 81.1903 125.69 81.934 127.025 81.934C128.142 81.934 129.1 81.2231 129.593 80.7075C129.649 81.2704 129.738 81.854 129.738 81.854H130.523V77.4233C130.523 74.9726 129.593 74.2568 127.893 74.2568ZM127.09 81.1151C126.385 81.1151 125.779 80.7876 125.779 79.9492C125.779 78.7117 127.208 78.3235 129.551 78.3138V79.7163C128.828 80.5789 127.973 81.1151 127.09 81.1151Z" fill="#4348BD"/>
<path d="M145.428 81.854V74.3466H144.457V80.9962H141.648V74.3466H140.685V80.9962H137.882V74.3466H136.909V81.854H145.428Z" fill="#4348BD"/>
<path d="M160.592 70.5796V81.854H161.596V71.5611H166.88V70.5796H160.592Z" fill="#4348BD"/>
<path d="M175.704 76.0585V81.854H176.68V74.3466H175.704L171.999 80.1336V74.3466H171.026V81.854H171.999L175.704 76.0585Z" fill="#4348BD"/>
<path d="M182.424 84.1287H183.062L183.415 81.854H188.627L188.979 84.1287H189.618V80.9962H188.787V74.3466H184.053C184.053 78.9253 183.621 80.4891 182.898 80.9962H182.424V84.1287ZM184.063 80.9962C184.885 79.7587 184.974 77.4415 184.974 75.1813H187.815V80.9962H184.063Z" fill="#4348BD"/>
<path d="M204.307 70.5796V81.854H205.326V71.5611H210.966V81.854H211.976V70.5796H204.307Z" fill="#4348BD"/>
<path d="M223.067 74.3466L220.968 81.2425L218.616 74.3466H217.569L220.1 81.854H220.762L220.48 82.7966C220.203 83.8012 219.795 84.5558 219.049 84.5558C218.667 84.5558 218.297 84.3847 218.071 84.2561L217.738 84.8021C218.071 85.1576 218.588 85.3941 219.109 85.3941C220.311 85.3941 220.978 84.5267 221.429 83.0429L224.077 74.3466H223.067Z" fill="#4348BD"/>
<path d="M229.182 74.3466V75.1813H231.563V81.854H232.535V75.1813H234.907V74.3466H229.182Z" fill="#4348BD"/>
<path d="M243.529 81.1806C242.345 81.1806 240.992 80.3047 240.992 78.1949L245.891 78.1148C245.891 76.2853 245.364 74.1525 243.256 74.1525C241.617 74.1525 240.021 75.6556 240.021 78.1767C240.021 80.631 241.406 82.025 243.354 82.025C244.787 82.025 245.764 81.3711 245.764 81.3711L245.557 80.807C245.557 80.807 244.787 81.1806 243.529 81.1806ZM243.256 74.9532C244.346 74.9532 244.886 76.0815 244.914 77.2947C242.406 77.3566 241.326 77.5228 241.021 77.5652C241.228 75.9116 242.256 74.9532 243.256 74.9532Z" fill="#4348BD"/>
<path d="M260.476 81.854V74.3466H259.505V80.9962H256.701V74.3466H255.733V80.9962H252.93V74.3466H251.958V81.854H260.476Z" fill="#4348BD"/>
<path d="M270.051 81.1806C268.873 81.1806 267.521 80.3047 267.521 78.1949L272.414 78.1148C272.414 76.2853 271.893 74.1525 269.784 74.1525C268.14 74.1525 266.543 75.6556 266.543 78.1767C266.543 80.631 267.934 82.025 269.883 82.025C271.315 82.025 272.287 81.3711 272.287 81.3711L272.081 80.807C272.081 80.807 271.315 81.1806 270.051 81.1806ZM269.784 74.9532C270.864 74.9532 271.404 76.0815 271.442 77.2947C268.934 77.3566 267.854 77.5228 267.544 77.5652C267.755 75.9116 268.775 74.9532 269.784 74.9532Z" fill="#4348BD"/>
<path d="M281.529 81.2049C280.144 81.2049 279.115 79.9868 279.115 78.167C279.115 76.3096 280.124 74.992 281.514 74.992C282.516 74.992 283.317 75.4082 283.317 75.4082L283.524 74.821C283.524 74.821 282.656 74.1525 281.27 74.1525C279.565 74.1525 278.156 75.703 278.156 78.167C278.156 80.6407 279.594 82.025 281.289 82.025C282.839 82.025 283.684 81.3711 283.684 81.3711L283.477 80.7681C283.477 80.7681 282.693 81.2049 281.529 81.2049Z" fill="#4348BD"/>
<path d="M288.953 74.3466V75.1813H291.32V81.854H292.297V75.1813H294.678V74.3466H288.953Z" fill="#4348BD"/>
<path d="M300.581 81.854H303.774C305.037 81.854 306.089 81.1624 306.089 79.7211C306.089 78.0675 304.431 77.8783 304.431 77.8783V77.8394C304.431 77.8394 305.577 77.5507 305.577 76.2283C305.577 74.9302 304.577 74.3466 303.276 74.3466H300.581V81.854ZM303.069 75.157C304.107 75.157 304.685 75.4567 304.685 76.2671C304.685 76.9769 304.163 77.5034 303.323 77.5034H301.557V75.157H303.069ZM303.394 78.3563C304.506 78.3563 305.164 78.7785 305.164 79.6787C305.164 80.4697 304.831 81.0532 303.488 81.0532H301.557V78.3563H303.394Z" fill="#4348BD"/>
<path d="M316.828 76.0585V81.854H317.806V74.3466H316.828L313.123 80.1336V74.3466H312.152V81.854H313.123L316.828 76.0585Z" fill="#4348BD"/>
<path d="M328.855 76.0584V81.854H329.832V74.3466H328.855L325.16 80.1336V74.3466H324.188V81.854H325.16L328.855 76.0584ZM328.236 71.8073C328.236 72.2902 327.94 72.9162 327.01 72.9162C326.08 72.9162 325.765 72.2999 325.765 71.8073H324.935C324.935 72.7075 325.413 73.6077 327.01 73.6077C328.399 73.6077 329.081 72.7075 329.081 71.8073H328.236Z" fill="#4348BD"/>
<path d="M22.4816 28.1074L21.622 27.5299C22.3914 26.364 23.2233 25.2212 24.0925 24.1268L24.8992 24.7808C24.0492 25.8472 23.2377 26.9706 22.4816 28.1074Z" fill="#4348BD"/>
<path d="M37.218 14.0086C36.053 14.7002 34.9074 15.4633 33.7989 16.2786L33.193 15.4257C34.3243 14.6007 35.4988 13.8242 36.6866 13.1133L37.218 14.0086Z" fill="#4348BD"/>
<path d="M27.6137 21.6859L26.8719 20.9567C27.8445 19.9473 28.8724 18.9658 29.9099 18.0511L30.5963 18.8421C29.5624 19.7435 28.5622 20.6959 27.6137 21.6859Z" fill="#4348BD"/>
<path d="M47.8116 99.01C49.1545 99.3885 50.5262 99.7161 51.8882 99.9721L52.0758 98.9433C50.7462 98.6922 49.4081 98.3791 48.0893 98.0043L47.8116 99.01Z" fill="#4348BD"/>
<path d="M39.9926 96.0049C41.2513 96.6261 42.5424 97.195 43.8336 97.6828L44.2003 96.711C42.9416 96.2281 41.6781 95.6737 40.4482 95.0719L39.9926 96.0049Z" fill="#4348BD"/>
<path d="M32.836 91.6312C33.9636 92.4647 35.1322 93.2557 36.3163 93.9812L36.8513 93.0859C35.6912 92.3798 34.5503 91.6021 33.4515 90.7917L32.836 91.6312Z" fill="#4348BD"/>
<path d="M27.3276 85.3225L26.5714 86.0383C27.5295 87.0574 28.5394 88.0438 29.5817 88.9767L30.2669 88.1954C29.2487 87.2855 28.2569 86.3186 27.3276 85.3225Z" fill="#4348BD"/>
<path d="M22.2556 78.844L21.3876 79.413C22.1474 80.5886 22.9697 81.7399 23.834 82.8439L24.6467 82.1949C23.8004 81.1151 22.9925 79.9868 22.2556 78.844Z" fill="#4348BD"/>
<path d="M18.405 71.5562L17.4516 71.9639C18.001 73.2668 18.6021 74.5504 19.2501 75.7782L20.1662 75.2856C19.5326 74.087 18.9399 72.8301 18.405 71.5562Z" fill="#4348BD"/>
<path d="M15.9212 63.6934L14.9114 63.9214C15.2119 65.2912 15.5786 66.6609 16.0054 68.0015L16.9864 67.6836C16.5788 66.3758 16.217 65.0303 15.9212 63.6934Z" fill="#4348BD"/>
<path d="M14.1925 59.7601L15.2168 59.6279C15.0424 58.263 14.9258 56.8788 14.8741 55.509L13.8354 55.5466C13.8871 56.9503 14.0098 58.3722 14.1925 59.7601Z" fill="#4348BD"/>
<path d="M14.249 47.1209C14.0567 48.5052 13.9256 49.9222 13.8547 51.3247L14.8874 51.3817C14.9583 50.0023 15.0845 48.6144 15.2733 47.2677L14.249 47.1209Z" fill="#4348BD"/>
<path d="M60.651 6.54983C59.2648 6.54498 57.8607 6.602 56.4662 6.71968L56.5551 7.76304C57.9172 7.64415 59.2937 7.58712 60.6462 7.59197L60.651 6.54983Z" fill="#4348BD"/>
<path d="M17.1234 39.2204L16.1412 38.8989C15.7097 40.2213 15.3298 41.5899 15.0148 42.9644L16.0198 43.1973C16.33 41.8507 16.7051 40.5198 17.1234 39.2204Z" fill="#4348BD"/>
<path d="M52.315 7.26924C50.9481 7.51188 49.5776 7.82005 48.2252 8.18887L48.4969 9.19339C49.8121 8.83792 51.1597 8.53463 52.4941 8.2932L52.315 7.26924Z" fill="#4348BD"/>
<path d="M20.3633 31.6476L19.4569 31.1501C18.7848 32.3913 18.1705 33.6712 17.6259 34.9463L18.5793 35.3636C19.1094 34.1116 19.7153 32.8656 20.3633 31.6476Z" fill="#4348BD"/>
<path d="M44.2423 9.47851C42.9464 9.96622 41.6456 10.5158 40.3821 11.1224L40.8281 12.0663C42.064 11.4682 43.3311 10.9332 44.5994 10.4588L44.2423 9.47851Z" fill="#4348BD"/>
<path d="M77.3686 6.86161L73.8558 6.7585L68.7982 -0.161682L67.1969 -0.19928L69.5495 6.62504L67.1596 6.55831C66.948 6.54982 66.7268 6.60685 66.5248 6.70148L65.0089 4.23137L63.7213 4.19377L64.9103 7.45487L63.5338 10.6347L64.8165 10.6772L66.4828 8.29806C66.6751 8.40725 66.8915 8.47397 67.1031 8.48246L69.4978 8.55405L66.7508 15.2316L68.3425 15.2886L73.8041 8.6778L77.3121 8.78577C77.9648 8.81003 78.5984 8.59652 79.1057 8.18403C79.1863 8.10396 79.2464 7.99962 79.2512 7.88558C79.2512 7.77153 79.2139 7.65385 79.1298 7.57742C78.6453 7.12732 78.0213 6.88102 77.3686 6.86161Z" fill="#4348BD"/>
<path d="M38.0294 29.4674C25.8669 41.0354 25.2947 60.4335 36.7575 72.7075C48.2204 84.9816 67.4409 85.5555 79.6082 73.9875C91.7707 62.4183 92.3394 43.0214 80.8765 30.7474C69.4137 18.4733 50.1932 17.8994 38.0294 29.4674ZM80.1913 38.2535C80.9703 38.2826 81.5005 38.4864 81.9609 38.8177C87.6617 49.2295 85.9149 62.6221 76.955 71.1486C73.6358 74.3041 69.7142 76.4224 65.5907 77.5179C65.5066 77.3711 65.4176 77.2243 65.3227 77.0678C64.7456 76.1191 65.6052 74.5892 65.6328 73.5701C65.6617 72.5753 66.3794 71.3051 66.0704 70.3381C65.8636 69.7024 65.051 69.4185 64.8394 68.8398C64.6843 68.4043 64.8767 67.589 64.8911 67.1243C64.9235 65.9548 63.9101 63.9688 63.1443 63.1438C62.2523 63.9918 61.3603 64.8411 60.4718 65.6891C59.6267 66.4898 58.8477 65.3288 58.2598 64.7028C57.946 64.3716 57.5842 63.9396 57.1334 63.7831C56.6212 63.6133 56.1235 64.2818 55.6499 64.4237C54.8228 64.6651 53.837 64.5463 53.1421 64.0209C52.6865 63.6788 52.4184 63.3622 51.9207 63.8741C51.4374 64.3716 51.3473 65.2293 50.8784 65.6745C50.2917 66.2338 49.6991 66.798 49.1076 67.3573C47.8068 68.5984 46.5012 69.8407 45.2005 71.077C45.3976 71.2905 45.9242 72.1009 46.2103 72.0111C46.9196 71.7976 47.6241 71.5841 48.3334 71.3657C49.3901 71.0491 50.4504 71.7552 51.4602 72.1288C52.4557 72.4989 53.4895 72.807 54.4561 73.2341C55.6583 73.7643 56.8473 74.4897 58.1949 74.5504C58.7575 74.5747 59.26 73.9875 59.7674 74.2811C60.4069 74.6499 60.8337 75.4373 61.1955 76.0584C61.5899 76.7451 61.9469 77.4609 62.3268 78.1573C55.6535 79.0478 48.7229 77.376 43.1015 73.1771C43.3503 72.9017 43.5847 72.6129 43.7398 72.4613C44.2616 71.9687 44.2423 71.9165 44.2664 71.1765C44.2844 70.5323 44.407 70.229 43.9754 69.7691C43.4813 69.239 42.9836 68.7027 42.4859 68.1726C43.4297 67.8875 44.3698 67.6035 45.3087 67.3184C44.6042 66.5092 45.0646 65.8832 45.6044 65.1674C46.2428 64.3194 45.9807 63.0249 46.6804 62.3576C47.2622 61.808 47.6048 61.6892 48.3141 61.3482C48.6904 61.1723 49.1497 60.9406 49.3612 60.5657C49.6426 60.0586 48.8732 59.4289 48.7085 58.9691C48.4692 58.3103 48.1542 57.3616 48.6471 56.8035C49.1881 56.2006 49.6991 55.2154 48.4644 55.1827C47.1023 55.139 45.7403 54.7362 44.4587 54.3201C43.9045 54.1345 43.3082 53.5946 42.7264 53.6613C41.4533 53.8081 41.0541 55.6328 40.9652 56.6701C40.9183 57.2536 42.0267 57.4429 41.7634 58.0349C41.3451 59.0019 40.655 60.1156 39.6031 60.4517C39.0297 60.6373 38.354 60.4044 37.8275 60.7465C37.4668 60.9831 37.4476 60.8362 37.1182 60.4856C36.5688 59.8972 36.0158 59.3052 35.4664 58.718C35.2404 58.4717 35.3954 58.5045 35.5553 58.2291C36.1889 57.1542 34.6116 56.5002 35.4616 55.6655C36.4425 54.7035 33.8554 53.9222 33.2592 53.8312C32.9201 53.779 32.6905 53.8312 32.4886 53.9501C31.8502 46.1309 34.602 38.0982 40.6875 32.3063C46.2247 27.041 53.4427 24.6667 60.4959 25.1168C60.5187 27.2351 60.6125 29.5815 60.3925 30.8711C60.2422 31.7568 59.7914 32.6339 59.486 33.4771C59.1807 34.3203 58.2514 34.9087 57.6166 35.5104C57.4532 35.6669 55.4804 37.4916 55.5321 37.5389C56.0718 38.1213 57.4664 39.0312 57.1754 39.8416C56.8232 40.8085 56.3159 41.7755 56.2834 42.8079C56.2738 43.1027 56.0622 44.117 56.4097 44.1303C56.4097 44.1303 56.4097 44.1303 56.4145 44.1255C56.269 44.1679 56.138 44.2298 56.0346 44.3293C55.306 45.0693 54.4044 45.9926 54.1375 47.0311C53.9728 47.6947 54.4561 47.9883 54.8131 48.4809C55.2123 49.0353 55.5513 49.7038 55.5369 50.405C55.5273 51.2434 55.6631 51.2531 56.3255 51.964C56.9927 51.173 57.6635 50.3771 58.3307 49.5849C58.4101 49.4903 58.9559 48.965 58.8609 48.8655C58.6878 48.6799 57.9929 48.1448 57.9977 47.8937C58.0158 47.3392 58.0302 46.78 58.0494 46.2255C58.0578 45.8846 58.8381 46.0836 59.1098 46.0921C59.6171 46.1066 59.9224 45.9222 59.9044 46.4573C59.89 46.9741 59.8756 47.486 59.8611 47.998C59.9741 47.884 60.8481 47.116 60.8012 47.059C60.1581 46.3056 59.9417 45.1967 59.9693 44.2346C60.003 43.1973 60.7207 42.4998 61.7257 42.4197C62.1345 42.3869 62.5576 43.1258 62.7921 43.3769C62.9519 43.548 64.5533 45.3581 64.6422 45.278C65.0654 44.874 65.5246 44.6229 65.5859 44.0405C65.8168 42.0412 67.483 40.8838 67.5864 38.8177C68.5121 39.1598 69.4317 39.5007 70.3526 39.8416C69.8309 40.8231 69.3103 41.8034 68.7886 42.7848C68.7465 42.8601 68.4267 43.5613 68.357 43.5383C67.8593 43.3575 67.3423 43.1779 66.8218 43.0979C66.1257 42.9887 66.3746 43.4194 66.7881 43.7372C67.4698 44.2589 68.3991 44.4676 69.2394 44.5149C70.123 44.5622 71.217 45.2295 72.0525 45.5376C70.8828 44.4057 74.3631 44.6665 74.8752 44.6799C74.8981 43.8889 74.9221 43.0882 74.945 42.2971C74.9546 41.898 74.969 41.5049 74.9786 41.1118C74.987 40.794 74.7622 40.9177 74.4713 40.8607C72.9024 40.5477 74.9029 39.1731 75.4294 38.6709C76.4297 37.7233 77.4347 37.2635 78.8196 37.2732C77.847 38.1067 79.7729 38.2402 80.1913 38.2535Z" fill="#4348BD"/>
<path d="M52.8368 43.7093C52.8271 44.1255 52.8127 44.5428 52.8031 44.9601C52.6576 45.2489 52.3102 45.6092 52.5362 45.8749C52.8127 46.2061 53.0904 46.5288 53.3669 46.86C53.5881 46.2534 53.8081 45.642 54.0293 45.0354C54.1003 44.8413 53.0147 43.8937 52.8368 43.7093Z" fill="#4348BD"/>
<path d="M53.837 40.9311C54.0762 40.7042 54.616 40.4433 54.3491 40.1546C54.3443 40.1497 54.3395 40.1449 54.3347 40.14C54.4657 40.1874 54.6016 40.1643 54.7434 40.0551C54.9682 40.453 55.1894 40.8607 55.3962 41.278C55.4142 40.7042 55.4287 40.1352 55.4479 39.5626C55.4563 39.178 54.8841 38.7897 54.64 38.524C54.5932 38.4816 54.5499 38.4343 54.5078 38.3869C53.9211 37.7561 53.3297 37.1264 52.7382 36.4907C52.7562 36.5477 52.7803 36.6375 52.8079 36.7418C52.6672 36.6193 52.5362 36.4907 52.3956 36.3682C52.5687 36.629 52.743 36.8886 52.9161 37.1495C53.0988 37.8422 53.4042 38.8795 53.7805 39.5431C53.6999 39.4631 53.6254 39.3818 53.5497 39.3017C52.963 38.6708 52.3715 38.0363 51.78 37.4055C51.9532 37.9793 52.8175 41.9028 53.837 40.9311Z" fill="#4348BD"/>
<path d="M76.866 48.2249C77.3962 47.5237 77.5934 46.5713 77.6415 45.7038C76.7062 46.1394 75.7769 46.5761 74.8416 47.0165C73.7945 47.5043 73.7103 47.4193 72.5971 47.0068C71.7243 46.6805 71.1136 46.4475 70.2023 46.4245C69.5351 46.4002 67.6994 46.6938 67.2245 46.1879C66.5068 45.4151 66.6102 45.2295 65.8961 45.9125C64.9993 46.7654 64.0976 47.6183 63.2008 48.4712C61.7305 49.87 60.2602 51.2676 58.7912 52.6653C58.7671 53.813 58.8056 54.9922 59.0497 56.1108C59.4812 58.1065 61.0212 57.8457 62.7079 57.9682C64.5112 58.1065 65.7218 60.0962 67.6573 58.8126C68.3474 58.3528 68.9388 57.6321 69.5399 57.0632C69.6109 56.9976 70.7517 55.5563 70.4091 55.4472C70.7794 55.566 71.3576 56.3389 71.6954 56.5997C72.4468 57.1772 73.2318 57.7171 74.0157 58.2533C74.9498 58.8927 75.974 59.4289 76.7482 60.2576C77.5465 61.1104 78.9086 60.7938 80.0362 60.8265C80.4582 60.8411 80.8104 60.9636 81.1254 60.6652C81.6652 60.1484 82.205 59.6327 82.7507 59.1208C83.0176 58.8648 79.3786 55.9834 79.8391 54.7508C79.9653 54.3953 80.576 54.0738 80.4534 53.6565C80.3788 53.3713 80.0494 53.2391 79.9749 52.9601C79.7777 52.2673 80.7635 52.1824 80.1059 51.3671C79.571 50.7083 78.2654 49.5327 77.3734 49.4527C76.289 49.358 76.2746 49.0123 76.866 48.2249Z" fill="#4348BD"/>
<path d="M43.2373 41.8507C42.2936 41.8325 41.3403 41.8701 40.4062 42.012C39.1475 42.2013 38.5271 42.6999 37.6171 43.5662C37.1795 43.9786 36.7058 44.3717 36.3067 44.8231C36.1324 45.0172 36.4005 45.1591 36.4798 45.3484C36.9403 46.5046 36.5267 48.8133 36.4894 50.1163C37.4103 49.244 39.7245 50.6804 40.7344 51.0541C41.3354 51.2773 41.6745 51.7893 42.1157 52.2625C42.7588 52.9552 42.8153 53.1299 43.735 53.159C44.6463 53.1869 44.7869 53.415 44.811 52.5051C44.8386 51.5855 44.8675 50.6707 44.8903 49.7608C44.9095 49.1542 44.2988 48.7842 43.9093 48.3632C43.3275 47.742 42.8766 47.7044 43.4958 47.1063C43.9754 46.6514 44.4683 46.268 44.5381 45.5716C44.5946 45.0354 44.5248 44.5003 44.8482 44.0405C45.2101 43.5285 46.0035 42.4718 45.1211 41.9077C44.7641 41.6808 43.6797 41.8652 43.2373 41.8507Z" fill="#4348BD"/>
</g>
</g>
<defs>
<clipPath id="clip0_2501_166">
<rect width="100" height="100" fill="white"/>
</clipPath>
<clipPath id="clip1_2501_166">
<rect width="330" height="101" fill="white" transform="translate(13 -1)"/>
</clipPath>
</defs>
</svg>
